<svg xmlns="http://www.w3.org/2000/svg" viewBox="0 0 941.63 148.53"><defs><style>.cls-1{fill:#f0f;}.cls-2{fill:#683b11;}</style></defs><g id="Layer_2" data-name="Layer 2"><g id="Layer_1-2" data-name="Layer 1"><rect class="cls-1" width="941.63" height="148.53"/><path class="cls-2" d="M35.18,8.85H50.64V12H38.36V20h10V23.1h-10V35.22H35.18Z"/><path class="cls-2" d="M56.86,8.85H64.8c4.72,0,7.18,2.66,7.18,7.53,0,2.88-1.06,4.9-3.15,6,2.09.72,2.43,2.17,2.6,4.86l.24,4.26c.1,1.63.31,2.55,1.06,3v.72H69.14a9.8,9.8,0,0,1-.62-3.57l-.17-3.42c-.2-3.88-1.16-4.14-5.06-4.14H60V35.22H56.86ZM60,12.08v8.78H63.7c3.29,0,5-.87,5-4.41,0-3.38-1.61-4.37-4.79-4.37Z"/><path class="cls-2" d="M86.79,8.13c5.33,0,8.78,5,8.78,13.91s-3.45,13.9-8.78,13.9S78,30.93,78,22,81.42,8.13,86.79,8.13Zm0,24.62c3.24,0,5.5-3.8,5.5-10.71s-2.22-10.76-5.5-10.76S81.28,15.05,81.28,22,83.54,32.75,86.79,32.75Z"/><path class="cls-2" d="M100.53,8.85h4.21l4.34,23.26,4.38-23.26h4.17V35.22H115V11.28l-4.41,23.94h-2.94l-4.44-23.94V35.22h-2.64Z"/><path class="cls-2" d="M152.1,12h-7.22V8.85h17.55V12h-7.19V35.22H152.1Z"/><path class="cls-2" d="M168,8.85h3.19V19.61h9.5V8.85h3.15V35.22h-3.15V22.84h-9.5V35.22H168Z"/><path class="cls-2" d="M191.08,8.85h14.77V12H194.23V20h10.6V23.1h-10.6V32h11.9v3.19h-15Z"/><path class="cls-2" d="M251.68,25.42c-.62,6.69-3.9,10.52-8.52,10.52-5.33,0-8.78-5-8.78-13.9s3.45-13.91,8.78-13.91c4.21,0,7.39,3.23,8.14,8.66h-3.25c-.71-3.57-2.56-5.51-4.89-5.51-3.25,0-5.5,3.77-5.5,10.76s2.29,10.71,5.5,10.71c2.67,0,4.72-2.54,5.23-7.33Z"/><path class="cls-2" d="M257.22,8.85h3.18V19.61h9.5V8.85h3.15V35.22H269.9V22.84h-9.5V35.22h-3.18Z"/><path class="cls-2" d="M285.87,12H281.5V8.85h11.9V12H289V32h4.38v3.19H281.5V32h4.37Z"/><path class="cls-2" d="M302,8.85h3.72l9,21.62V8.85h2.87V35.22h-3.66l-9.1-21.62V35.22H302Z"/><path class="cls-2" d="M324.86,8.85h14.77V12H328V20h10.6V23.1H328V32h11.9v3.19h-15Z"/><path class="cls-2" d="M354.54,32.75c3,0,5.16-1.82,5.16-4.79,0-3.38-2.36-3.57-6.56-4.9s-6.6-2.51-6.6-7.06,3.08-7.83,7.56-7.83c5.12,0,8.1,3.08,8.1,8.47v.08h-3.11c-.24-3.54-2-5.44-4.89-5.44s-4.45,1.68-4.45,4.18c0,3.12,1.57,3.61,5.71,4.68,4.69,1.21,7.39,2.39,7.39,7.44s-3.22,8.36-8.45,8.36-8.34-3.38-8.58-9.42h3.11C348.93,30.4,351.15,32.75,354.54,32.75Z"/><path class="cls-2" d="M369.45,8.85h14.77V12H372.6V20h10.6V23.1H372.6V32h11.89v3.19h-15Z"/><path class="cls-2" d="M430,25.42c-.61,6.69-3.89,10.52-8.51,10.52-5.34,0-8.79-5-8.79-13.9s3.45-13.91,8.79-13.91c4.21,0,7.39,3.23,8.14,8.66h-3.25c-.72-3.57-2.57-5.51-4.89-5.51-3.25,0-5.51,3.77-5.51,10.76s2.29,10.71,5.51,10.71c2.67,0,4.72-2.54,5.23-7.33Z"/><path class="cls-2" d="M441.77,8.81h3.49L454,35.22h-3.22l-2.49-7.75h-9.48l-2.49,7.75h-3.15Zm5.41,15.43-3.66-11.63-3.66,11.63Z"/><path class="cls-2" d="M474.36,27.32c0,4.94-2.7,7.9-7.52,7.9h-8.93V8.85h8.45c4.58,0,6.94,2.28,6.94,6.61A5.72,5.72,0,0,1,470.09,21C472.86,21.77,474.36,24,474.36,27.32Zm-4.17-11.48c0-2.73-1.37-3.83-4.21-3.83h-4.92V19.8h4.65C468.69,19.8,470.19,18.47,470.19,15.84Zm.89,11.55c0-3.07-1.64-4.4-4.92-4.4h-5.1v9.08h5.4C469.54,32.07,471.08,30.55,471.08,27.39Z"/><path class="cls-2" d="M496.66,27.32c0,4.94-2.7,7.9-7.53,7.9h-8.92V8.85h8.45c4.58,0,6.94,2.28,6.94,6.61A5.71,5.71,0,0,1,492.38,21C495.15,21.77,496.66,24,496.66,27.32Zm-4.17-11.48c0-2.73-1.37-3.83-4.21-3.83h-4.92V19.8H488C491,19.8,492.49,18.47,492.49,15.84Zm.88,11.55c0-3.07-1.64-4.4-4.92-4.4h-5.09v9.08h5.4C491.84,32.07,493.37,30.55,493.37,27.39Z"/><path class="cls-2" d="M508.66,8.81h3.49l8.68,26.41h-3.21l-2.5-7.75h-9.47l-2.5,7.75H500Zm5.4,15.43L510.4,12.61l-3.65,11.63Z"/><path class="cls-2" d="M532.46,35.94c-5,0-8.79-5.2-8.79-13.9S527.33,8.13,533,8.13c4.35,0,7.32,3.19,7.9,8.66h-3.38c-.45-3.64-2.19-5.62-4.72-5.62-3.7,0-5.88,3.8-5.88,10.75s2.35,10.76,5.71,10.76c3,0,5.26-3.08,5.26-8.25V24.2H532.6V21h8.65V35.22h-1.71L539,31.69C537.39,34.5,535.23,35.94,532.46,35.94Z"/><path class="cls-2" d="M547.81,8.85h14.78V12H551V20h10.6V23.1H551V32h11.9v3.19H547.81Z"/><path class="cls-2" d="M598,12H590.8V8.85h17.54V12h-7.18V35.22H598Z"/><path class="cls-2" d="M621.88,8.13c5.34,0,8.79,5,8.79,13.91s-3.45,13.9-8.79,13.9-8.78-5-8.78-13.9S616.51,8.13,621.88,8.13Zm0,24.62c3.25,0,5.51-3.8,5.51-10.71s-2.22-10.76-5.51-10.76-5.5,3.77-5.5,10.76S618.64,32.75,621.88,32.75Z"/><path class="cls-2" d="M664.9,12h-7.21V8.85h17.54V12h-7.18V35.22H664.9Z"/><path class="cls-2" d="M687,8.81h3.48l8.69,26.41H696l-2.5-7.75H684l-2.5,7.75h-3.14Zm5.4,15.43-3.66-11.63-3.66,11.63Z"/><path class="cls-2" d="M711.27,32.75c3,0,5.16-1.82,5.16-4.79,0-3.38-2.35-3.57-6.56-4.9s-6.6-2.51-6.6-7.06,3.08-7.83,7.56-7.83c5.13,0,8.1,3.08,8.1,8.47v.08h-3.11c-.24-3.54-2-5.44-4.89-5.44s-4.45,1.68-4.45,4.18c0,3.12,1.58,3.61,5.71,4.68,4.69,1.21,7.39,2.39,7.39,7.44s-3.21,8.36-8.44,8.36-8.35-3.38-8.59-9.42h3.11C705.66,30.4,707.89,32.75,711.27,32.75Z"/><path class="cls-2" d="M731.79,12h-7.22V8.85h17.55V12h-7.19V35.22h-3.14Z"/><path class="cls-2" d="M754.26,35.22V24.77l-8.14-16h3.79l5.92,12.5,5.85-12.5h3.55l-7.79,15.73V35.22Z"/><path class="cls-2" d="M792.83,8.85H796v12.2l10.15-12.2h4.17L801,20l9.58,15.27h-3.83l-8-12.73L796,25.84v9.38h-3.15Z"/><path class="cls-2" d="M821,12H816.6V8.85h11.9V12h-4.38V32h4.38v3.19H816.6V32H821Z"/><path class="cls-2" d="M836.29,8.85h4.21l4.34,23.26,4.38-23.26h4.17V35.22h-2.67V11.28l-4.41,23.94h-2.94l-4.44-23.94V35.22h-2.64Z"/><path class="cls-2" d="M876,25.42c-.62,6.69-3.9,10.52-8.52,10.52-5.33,0-8.78-5-8.78-13.9s3.45-13.91,8.78-13.91c4.21,0,7.39,3.23,8.14,8.66h-3.25c-.71-3.57-2.56-5.51-4.89-5.51-3.24,0-5.5,3.77-5.5,10.76s2.29,10.71,5.5,10.71c2.67,0,4.72-2.54,5.24-7.33Z"/><path class="cls-2" d="M881.5,8.85h3.18V19.61h9.51V8.85h3.14V35.22h-3.14V22.84h-9.51V35.22H881.5Z"/><path class="cls-2" d="M910.16,12h-4.38V8.85h11.9V12H913.3V32h4.38v3.19h-11.9V32h4.38Z"/><path class="cls-2" d="M68.7,43.08h3.14V66.26H84v3.19H68.7Z"/><path class="cls-2" d="M96.36,46.28H92v-3.2h11.9v3.2H99.51v20h4.37v3.19H92V66.26h4.38Z"/><path class="cls-2" d="M129.43,43.05l-7.49,26.4h-3.42l-7.66-26.4h3.25l6.12,22.45,6-22.45Z"/><path class="cls-2" d="M135.34,43.08h14.78v3.2H138.49v7.9h10.6v3.15h-10.6v8.93h11.9v3.19h-15Z"/><path class="cls-2" d="M187.32,67c3,0,5.16-1.82,5.16-4.78,0-3.39-2.36-3.58-6.56-4.91s-6.6-2.5-6.6-7.06,3.08-7.83,7.56-7.83c5.13,0,8.1,3.08,8.1,8.47V51h-3.11c-.24-3.53-2-5.43-4.89-5.43s-4.45,1.67-4.45,4.18c0,3.11,1.58,3.6,5.71,4.67,4.69,1.21,7.39,2.39,7.39,7.45s-3.21,8.35-8.45,8.35-8.34-3.38-8.58-9.42h3.11C181.71,64.63,183.93,67,187.32,67Z"/><path class="cls-2" d="M207.84,46.28h-7.22v-3.2h17.55v3.2H211V69.45h-3.14Z"/><path class="cls-2" d="M224.08,43.08H232c4.72,0,7.19,2.66,7.19,7.53,0,2.88-1.06,4.9-3.15,6,2.09.72,2.43,2.17,2.6,4.87l.24,4.25c.1,1.63.31,2.55,1.06,3v.72h-3.59a9.7,9.7,0,0,1-.62-3.57l-.17-3.42c-.2-3.87-1.16-4.14-5.06-4.14h-3.25V69.45h-3.18Zm3.18,3.23v8.78h3.66c3.28,0,5-.87,5-4.41,0-3.38-1.6-4.37-4.78-4.37Z"/><path class="cls-2" d="M246.82,43.08h14.77v3.2H250v7.9h10.6v3.15H250v8.93h11.9v3.19H246.82Z"/><path class="cls-2" d="M274.55,43.05H278l8.69,26.4h-3.22L281,61.7h-9.47l-2.5,7.75H265.9ZM280,58.47,276.3,46.85l-3.66,11.62Z"/><path class="cls-2" d="M290.05,43.08h4.2l4.35,23.26L303,43.08h4.17V69.45h-2.66V45.52l-4.42,23.93h-2.94l-4.44-23.93V69.45h-2.63Z"/><path class="cls-2" d="M348,47.8a4.84,4.84,0,1,1-9.64,0,4.85,4.85,0,1,1,9.64,0Zm-8.07,0a3.27,3.27,0,1,0,6.49,0,3.26,3.26,0,1,0-6.49,0Z"/><path class="cls-2" d="M365.52,37.27a4.4,4.4,0,0,1,4.2,4.67,4.23,4.23,0,1,1-8.41,0A4.43,4.43,0,0,1,365.52,37.27Zm0,7.18a2.52,2.52,0,1,0-2.26-2.51A2.38,2.38,0,0,0,365.52,44.45Z"/><path class="cls-2" d="M382.72,57.45A7.79,7.79,0,0,1,381.38,53a7.66,7.66,0,0,1,1.34-4.37l-3.18-3.53,1.19-1.33,3.18,3.53a5.94,5.94,0,0,1,7.94,0L395,43.81l1.2,1.33L393,48.67A7.65,7.65,0,0,1,394.34,53,7.73,7.73,0,0,1,393,57.45l3.18,3.49L395,62.27l-3.14-3.53a5.94,5.94,0,0,1-4,1.52,5.83,5.83,0,0,1-4-1.52l-3.18,3.53-1.19-1.33Zm5.16.91a5.37,5.37,0,0,0,0-10.68c-2.67,0-4.79,2.43-4.79,5.36A5.07,5.07,0,0,0,387.88,58.36Z"/><path class="cls-2" d="M408.5,46.28h-7.21v-3.2h17.54v3.2h-7.18V69.45H408.5Z"/><path class="cls-2" d="M424.44,43.08h3.18V53.84h9.5V43.08h3.15V69.45h-3.15V57.07h-9.5V69.45h-3.18Z"/><path class="cls-2" d="M447.48,43.08h14.78v3.2H450.63v7.9h10.6v3.15h-10.6v8.93h11.9v3.19h-15Z"/><path class="cls-2" d="M492.32,43.08h3.14V66.26h12.11v3.19H492.32Z"/><path class="cls-2" d="M520,46.28H515.6v-3.2h11.9v3.2h-4.37v20h4.37v3.19H515.6V66.26H520Z"/><path class="cls-2" d="M536.84,43.08h15.45v3.2H540v7.9h10v3.15H540V69.45h-3.18Z"/><path class="cls-2" d="M559,43.08h14.77v3.2H562.11v7.9h10.6v3.15h-10.6v8.93H574v3.19H559Z"/><path class="cls-2" d="M610.74,42.36c5.33,0,8.78,5,8.78,13.91s-3.45,13.9-8.78,13.9-8.79-5-8.79-13.9S605.37,42.36,610.74,42.36Zm0,24.62c3.24,0,5.5-3.8,5.5-10.71s-2.22-10.75-5.5-10.75-5.51,3.76-5.51,10.75S607.49,67,610.74,67Z"/><path class="cls-2" d="M626,43.08h15.46v3.2H629.2v7.9h10v3.15h-10V69.45H626Z"/><path class="cls-2" d="M686.17,61.55c0,4.94-2.7,7.9-7.52,7.9h-8.93V43.08h8.45c4.58,0,6.94,2.28,6.94,6.62a5.72,5.72,0,0,1-3.21,5.5C684.67,56,686.17,58.24,686.17,61.55ZM682,50.08c0-2.74-1.37-3.84-4.21-3.84h-4.92V54h4.65C680.5,54,682,52.7,682,50.08Zm.89,11.55c0-3.08-1.64-4.41-4.92-4.41h-5.1V66.3h5.4C681.35,66.3,682.89,64.78,682.89,61.63Z"/><path class="cls-2" d="M698.18,43.05h3.48l8.69,26.4h-3.22l-2.49-7.75h-9.47l-2.5,7.75h-3.15Zm5.4,15.42-3.66-11.62-3.66,11.62Z"/><path class="cls-2" d="M715,43.08H729.8v3.2H718.18v7.9h10.6v3.15h-10.6v8.93h11.9v3.19H715Z"/><path class="cls-2" d="M753.33,59.65c-.61,6.69-3.9,10.52-8.51,10.52-5.34,0-8.79-5-8.79-13.9s3.45-13.91,8.79-13.91c4.2,0,7.38,3.23,8.14,8.66h-3.25c-.72-3.57-2.57-5.5-4.89-5.5-3.25,0-5.51,3.76-5.51,10.75S741.6,67,744.82,67c2.66,0,4.72-2.54,5.23-7.33Z"/><path class="cls-2" d="M758.87,43.08h3.18V53.84h9.51V43.08h3.14V69.45h-3.14V57.07h-9.51V69.45h-3.18Z"/><path class="cls-2" d="M780.93,43.08h3.14V59.61c0,4.94,1.58,7.37,5,7.37s5-2.47,5-7.37V43.08h3.18V59.42c0,7.3-2.59,10.75-8.17,10.75s-8.17-3.49-8.17-10.75Z"/><path class="cls-2" d="M806.34,57.45A7.79,7.79,0,0,1,805,53a7.66,7.66,0,0,1,1.34-4.37l-3.18-3.53,1.19-1.33,3.18,3.53a5.94,5.94,0,0,1,7.94,0l3.14-3.53,1.2,1.33-3.18,3.53A7.65,7.65,0,0,1,818,53a7.73,7.73,0,0,1-1.33,4.41l3.18,3.49-1.2,1.33-3.14-3.53a5.94,5.94,0,0,1-4,1.52,5.83,5.83,0,0,1-4-1.52l-3.18,3.53-1.19-1.33Zm5.16.91a5.37,5.37,0,0,0,0-10.68c-2.67,0-4.79,2.43-4.79,5.36A5.07,5.07,0,0,0,811.5,58.36Z"/><path class="cls-2" d="M833.73,37.27a4.4,4.4,0,0,1,4.2,4.67,4.23,4.23,0,1,1-8.41,0A4.43,4.43,0,0,1,833.73,37.27Zm0,7.18a2.52,2.52,0,1,0-2.26-2.51A2.38,2.38,0,0,0,833.73,44.45Z"/><path class="cls-2" d="M860.81,47.8a4.84,4.84,0,1,1-9.64,0,4.85,4.85,0,1,1,9.64,0Zm-8.07,0a3.27,3.27,0,1,0,6.5,0,3.26,3.26,0,1,0-6.5,0Z"/><path class="cls-2" d="M65.34,74.71V72.09H310.6v2.62Z"/><path class="cls-2" d="M224.49,77.32h8.21c4.72,0,7.18,2.62,7.18,7.59A7.71,7.71,0,0,1,237.45,91c-1.71,1.48-3.65,1.52-6.32,1.52h-3.49v11.13h-3.15Zm3.15,3.23v8.77h4c3.28,0,5-.87,5-4.41,0-3.38-1.57-4.36-4.75-4.36Z"/><path class="cls-2" d="M247.06,77.32h3.15v23.17h12.1v3.19H247.06Z"/><path class="cls-2" d="M274.56,77.28h3.49l8.68,26.4h-3.21L281,95.93h-9.47l-2.5,7.75h-3.14ZM280,92.7,276.3,81.08,272.64,92.7Z"/><path class="cls-2" d="M290.8,77.32h3.73l9,21.61V77.32h2.87v26.36h-3.66l-9.09-21.62v21.62H290.8Z"/><path class="cls-2" d="M319.32,80.51H312.1V77.32h17.55v3.19h-7.18v23.17h-3.15Z"/><path class="cls-2" d="M336,77.32h14.77v3.19H339.15v7.9h10.6v3.15h-10.6v8.93h11.9v3.19H336Z"/><path class="cls-2" d="M374.27,90.5c0,8.51-3.25,13.18-8.82,13.18h-7.9V77.32h7.9C371.4,77.32,374.27,81.65,374.27,90.5Zm-13.54-10v20.06h4.48c3.93,0,5.78-3.27,5.78-10,0-7.22-1.75-10-5.78-10Z"/><path class="cls-2" d="M410.08,76.59c5.33,0,8.78,5,8.78,13.91s-3.45,13.91-8.78,13.91-8.79-5-8.79-13.91S404.71,76.59,410.08,76.59Zm0,24.62c3.24,0,5.5-3.8,5.5-10.71s-2.22-10.75-5.5-10.75-5.51,3.76-5.51,10.75S406.83,101.21,410.08,101.21Z"/><path class="cls-2" d="M424.57,77.32h3.73l9,21.61V77.32h2.87v26.36h-3.66l-9.1-21.62v21.62h-2.84Z"/><path class="cls-2" d="M477.17,101.21c3,0,5.16-1.82,5.16-4.78,0-3.38-2.36-3.57-6.56-4.9s-6.6-2.51-6.6-7.07,3.07-7.83,7.55-7.83c5.13,0,8.11,3.08,8.11,8.47v.08h-3.11c-.24-3.53-2-5.43-4.89-5.43s-4.45,1.67-4.45,4.18c0,3.11,1.57,3.61,5.71,4.67,4.69,1.22,7.39,2.39,7.39,7.45s-3.22,8.36-8.45,8.36S468.69,101,468.45,95h3.11C471.56,98.86,473.78,101.21,477.17,101.21Z"/><path class="cls-2" d="M492.08,77.32h14.77v3.19H495.22v7.9h10.6v3.15h-10.6v8.93h11.9v3.19h-15Z"/><path class="cls-2" d="M514.34,77.32h8.21c4.71,0,7.18,2.62,7.18,7.59A7.71,7.71,0,0,1,527.3,91c-1.71,1.48-3.66,1.52-6.33,1.52h-3.49v11.13h-3.14Zm3.14,3.23v8.77h4c3.28,0,5-.87,5-4.41,0-3.38-1.57-4.36-4.75-4.36Z"/><path class="cls-2" d="M542.28,80.51h-7.22V77.32H552.6v3.19h-7.18v23.17h-3.14Z"/><path class="cls-2" d="M583.14,96.81c.38,2.73,2.16,4.37,4.75,4.37,3.22,0,5.3-2.4,5.3-5.85s-2.05-5.89-5.3-5.89a5.34,5.34,0,0,0-4.51,2.43h-2.74l1.89-14h12.68V81H584.82l-1,7.11a6.33,6.33,0,0,1,4.55-1.71c4.89,0,8.1,3.53,8.1,8.74,0,5.54-3.45,9.3-8.51,9.3a7.81,7.81,0,0,1-8-7.63Z"/><path class="cls-2" d="M624.69,103.57c0-5.77,2.46-8.66,7.56-11.74l2-1.22c2.36-1.44,3.49-3.15,3.49-5.66A4.44,4.44,0,0,0,633,80.28c-2.84,0-4.65,2.24-4.65,6.12v.3h-3.11v-.53c0-5.66,3.14-9,7.93-9A7.42,7.42,0,0,1,641,85c0,3.61-1.64,6.31-5.13,8.32l-2,1.14c-3.07,1.79-5.09,3.35-5.74,6H641v3.26H624.69Z"/><path class="cls-2" d="M655.33,77.13c5.37,0,8.21,4.63,8.21,13.67s-2.84,13.64-8.21,13.64-8.24-4.63-8.24-13.64S650,77.13,655.33,77.13Zm0,24.2c3.56,0,4.92-3.46,4.92-10.53s-1.36-10.52-4.92-10.52-5,3.46-5,10.52S651.81,101.33,655.33,101.33Z"/><path class="cls-2" d="M669.28,103.57c0-5.77,2.46-8.66,7.56-11.74l2-1.22c2.36-1.44,3.48-3.15,3.48-5.66a4.44,4.44,0,0,0-4.75-4.67c-2.84,0-4.65,2.24-4.65,6.12v.3h-3.11v-.53c0-5.66,3.14-9,7.93-9s7.83,3.15,7.83,7.86c0,3.61-1.64,6.31-5.13,8.32l-2,1.14c-3.08,1.79-5.1,3.35-5.75,6h12.89v3.26H669.28Z"/><path class="cls-2" d="M699.92,77.13c5.37,0,8.21,4.63,8.21,13.67s-2.84,13.64-8.21,13.64-8.24-4.63-8.24-13.64S694.59,77.13,699.92,77.13Zm0,24.2c3.56,0,4.92-3.46,4.92-10.53s-1.36-10.52-4.92-10.52-5,3.46-5,10.52S696.4,101.33,699.92,101.33Z"/><path class="cls-2" d="M29.3,111.51h3.49l8.68,26.41H38.26l-2.5-7.76H26.29l-2.49,7.76H20.65Zm5.4,15.42-3.65-11.62-3.66,11.62Z"/><path class="cls-2" d="M51.77,114.74H44.55v-3.19H62.1v3.19H54.91v23.18H51.77Z"/><path class="cls-2" d="M98.14,135.45c3,0,5.16-1.83,5.16-4.79,0-3.38-2.36-3.57-6.56-4.9s-6.6-2.51-6.6-7.07,3.07-7.83,7.55-7.83c5.13,0,8.11,3.08,8.11,8.48v.07h-3.11c-.24-3.53-2-5.43-4.89-5.43s-4.45,1.67-4.45,4.18c0,3.11,1.57,3.61,5.71,4.67,4.69,1.22,7.39,2.39,7.39,7.45s-3.22,8.36-8.45,8.36-8.34-3.38-8.58-9.43h3.11C92.53,133.09,94.75,135.45,98.14,135.45Z"/><path class="cls-2" d="M118.48,111.51H122l8.69,26.41h-3.22L125,130.16h-9.47l-2.5,7.76h-3.15Zm5.41,15.42-3.66-11.62-3.66,11.62Z"/><path class="cls-2" d="M134.9,111.55h7.93c4.72,0,7.18,2.66,7.18,7.52,0,2.89-1.06,4.9-3.14,6,2.08.72,2.42,2.16,2.6,4.86l.23,4.25c.11,1.64.31,2.55,1.06,3v.73h-3.59a9.66,9.66,0,0,1-.61-3.58l-.17-3.42c-.21-3.87-1.17-4.14-5.06-4.14h-3.25v11.14H134.9Zm3.18,3.23v8.77h3.66c3.28,0,5-.87,5-4.4s-1.61-4.37-4.79-4.37Z"/><path class="cls-2" d="M157.6,111.55h8.21c4.72,0,7.18,2.62,7.18,7.6a7.69,7.69,0,0,1-2.43,6.11c-1.71,1.49-3.65,1.52-6.32,1.52h-3.49v11.14H157.6Zm3.15,3.23v8.77h4c3.28,0,5-.87,5-4.4s-1.57-4.37-4.75-4.37Z"/><path class="cls-2" d="M179.18,111.55h3.18V122.3h9.51V111.55H195v26.37h-3.14V125.53h-9.51v12.39h-3.18Z"/><path class="cls-2" d="M207.67,111.51h3.48l8.69,26.41h-3.21l-2.5-7.76h-9.47l-2.5,7.76H199Zm5.4,15.42-3.66-11.62-3.66,11.62Z"/><path class="cls-2" d="M230.13,114.74h-7.21v-3.19h17.54v3.19h-7.18v23.18h-3.15Z"/><path class="cls-2" d="M252.43,114.74h-4.38v-3.19H260v3.19h-4.37v20H260v3.2h-11.9v-3.2h4.38Z"/><path class="cls-2" d="M276.5,135.45c3.05,0,5.17-1.83,5.17-4.79,0-3.38-2.36-3.57-6.57-4.9s-6.6-2.51-6.6-7.07,3.08-7.83,7.56-7.83c5.13,0,8.1,3.08,8.1,8.48v.07h-3.11c-.24-3.53-2-5.43-4.89-5.43s-4.44,1.67-4.44,4.18c0,3.11,1.57,3.61,5.71,4.67,4.68,1.22,7.38,2.39,7.38,7.45s-3.21,8.36-8.44,8.36-8.35-3.38-8.59-9.43h3.12C270.9,133.09,273.12,135.45,276.5,135.45Z"/><path class="cls-2" d="M297,114.74h-7.21v-3.19h17.54v3.19h-7.18v23.18H297Z"/><path class="cls-2" d="M313.26,111.55h7.94c4.72,0,7.18,2.66,7.18,7.52,0,2.89-1.06,4.9-3.15,6,2.09.72,2.43,2.16,2.6,4.86l.24,4.25c.1,1.64.31,2.55,1.06,3v.73h-3.59a9.66,9.66,0,0,1-.61-3.58l-.18-3.42c-.2-3.87-1.16-4.14-5.06-4.14h-3.25v11.14h-3.18Zm3.18,3.23v8.77h3.66c3.29,0,5-.87,5-4.4s-1.61-4.37-4.79-4.37Z"/><path class="cls-2" d="M341.44,111.51h3.49l8.68,26.41H350.4l-2.5-7.76h-9.47l-2.49,7.76h-3.15Zm5.4,15.42-3.65-11.62-3.66,11.62Z"/><path class="cls-2" d="M363.74,111.51h3.48l8.69,26.41H372.7l-2.5-7.76h-9.47l-2.5,7.76h-3.14Zm5.4,15.42-3.66-11.62-3.66,11.62Z"/><path class="cls-2" d="M386.2,114.74H379v-3.19h17.54v3.19h-7.18v23.18H386.2Z"/><path class="cls-2" d="M434.25,131.38H423.82V128l10.4-15.92h3.11v16.22h3.38v3h-3.38v6.54h-3.08Zm0-3V116.52l-7.56,11.82Z"/><path class="cls-2" d="M459.66,115.57h-13v-3.45h16.28v3.15a42,42,0,0,0-9.57,22.65h-3.46A41.12,41.12,0,0,1,459.66,115.57Z"/><path class="cls-2" d="M477,111.36c5.37,0,8.21,4.63,8.21,13.68s-2.84,13.64-8.21,13.64S468.72,134,468.72,125,471.63,111.36,477,111.36Zm0,24.2c3.56,0,4.93-3.46,4.93-10.52s-1.37-10.53-4.93-10.53S472,118,472,125,473.44,135.56,477,135.56Z"/><path class="cls-2" d="M496.9,132.22h4.72v6.11c0,4.56-1.95,7.07-5.54,7.26V143c2.29-.31,3.11-1.56,3.11-4.37v-.72H496.9Z"/><path class="cls-2" d="M543.23,119.15h-5.54v-2.7c4-.08,5.92-1.48,6.33-5.09h2.32v26.56h-3.11Z"/><path class="cls-2" d="M566.14,111.36c5.37,0,8.21,4.63,8.21,13.68s-2.84,13.64-8.21,13.64S557.9,134,557.9,125,560.81,111.36,566.14,111.36Zm0,24.2c3.56,0,4.93-3.46,4.93-10.52s-1.37-10.53-4.93-10.53-5,3.46-5,10.53S562.62,135.56,566.14,135.56Z"/><path class="cls-2" d="M587.82,119.15h-5.54v-2.7c4-.08,5.92-1.48,6.33-5.09h2.33v26.56h-3.12Z"/><path class="cls-2" d="M603.35,118.16c0-3.92,2.87-6.8,7.39-6.8s7.35,2.88,7.35,6.8c0,2.66-1,4.48-3.11,5.55,2.59,1.1,3.93,3.38,3.93,6.64,0,4.91-3,8.33-8.17,8.33s-8.18-3.42-8.18-8.33c0-3.26,1.34-5.54,3.94-6.64A5.65,5.65,0,0,1,603.35,118.16Zm7.39,17.32c3,0,4.89-2,4.89-5.2a4.89,4.89,0,0,0-9.78,0C605.85,133.47,607.69,135.48,610.74,135.48Zm0-12.84a3.92,3.92,0,0,0,4.13-4.18,4.14,4.14,0,0,0-8.27,0A3.93,3.93,0,0,0,610.74,122.64Z"/><path class="cls-2" d="M655.09,138.64c-5,0-8.79-5.21-8.79-13.91s3.66-13.9,9.37-13.9c4.34,0,7.32,3.19,7.9,8.66h-3.39c-.44-3.65-2.19-5.63-4.72-5.63-3.69,0-5.88,3.8-5.88,10.76s2.36,10.75,5.71,10.75c3,0,5.27-3.08,5.27-8.24v-.23h-5.34v-3.23h8.66v14.25h-1.71l-.58-3.54C660,137.19,657.86,138.64,655.09,138.64Z"/><path class="cls-2" d="M667.06,111.51h2.8L672.8,134l3.32-22.45h3L682.48,134l2.94-22.45h2.73L684,137.92h-2.87L677.59,115l-3.42,22.88h-3Z"/><path class="cls-2" d="M720.47,111.51H724l8.68,26.41h-3.21l-2.5-7.76h-9.47l-2.5,7.76h-3.14Zm5.4,15.42-3.66-11.62-3.66,11.62Z"/><path class="cls-2" d="M736,111.55h4.21l4.34,23.25,4.38-23.25h4.17v26.37h-2.67V114L746,137.92H743L738.59,114v23.94H736Z"/><path class="cls-2" d="M767,135.45c3,0,5.16-1.83,5.16-4.79,0-3.38-2.36-3.57-6.56-4.9s-6.6-2.51-6.6-7.07,3.08-7.83,7.56-7.83c5.13,0,8.1,3.08,8.1,8.48v.07h-3.11c-.24-3.53-2-5.43-4.89-5.43s-4.45,1.67-4.45,4.18c0,3.11,1.58,3.61,5.71,4.67,4.69,1.22,7.39,2.39,7.39,7.45s-3.21,8.36-8.45,8.36-8.34-3.38-8.58-9.43h3.11C761.4,133.09,763.63,135.45,767,135.45Z"/><path class="cls-2" d="M787.53,114.74h-7.22v-3.19h17.55v3.19h-7.19v23.18h-3.14Z"/><path class="cls-2" d="M804.22,111.55H819v3.19H807.36v7.9H818v3.16h-10.6v8.92h11.9v3.2h-15Z"/><path class="cls-2" d="M826.07,111.55H834c4.72,0,7.18,2.66,7.18,7.52,0,2.89-1.06,4.9-3.14,6,2.08.72,2.42,2.16,2.6,4.86l.23,4.25c.11,1.64.31,2.55,1.06,3v.73h-3.59a9.66,9.66,0,0,1-.61-3.58l-.17-3.42c-.21-3.87-1.17-4.14-5.06-4.14h-3.25v11.14h-3.18Zm3.18,3.23v8.77h3.66c3.28,0,5-.87,5-4.4s-1.61-4.37-4.79-4.37Z"/><path class="cls-2" d="M864.78,124.73c0,8.51-3.25,13.19-8.82,13.19h-7.9V111.55H856C861.9,111.55,864.78,115.88,864.78,124.73Zm-13.54-10v20.06h4.48c3.93,0,5.77-3.27,5.77-10,0-7.22-1.74-10-5.77-10Z"/><path class="cls-2" d="M876.54,111.51H880l8.68,26.41H885.5l-2.5-7.76h-9.47l-2.5,7.76h-3.14Zm5.4,15.42-3.66-11.62-3.65,11.62Z"/><path class="cls-2" d="M892,111.55h4.21l4.34,23.25L905,111.55h4.17v26.37h-2.67V114l-4.41,23.94h-2.94L894.66,114v23.94H892Z"/></g></g></svg>